 <svg xmlns="http://www.w3.org/2000/svg" viewBox="0 0 500 500" xmlns:bx="https://boxy-svg.com">
  <defs>
    <linearGradient id="linear-gradient-1" gradientUnits="userSpaceOnUse" x1="94.141" y1="255" x2="94.141" y2="0.188">
      <stop offset="0" stop-color="#ff4c0d"></stop>
      <stop offset="1" stop-color="#fc9502"></stop>
    </linearGradient>
    <clipPath id="clip-0">
      <path d="M 213.359 -8.89 L 213.359 263.697 L -27.673 263.697 L 213.359 -8.89 Z" bx:shape="triangle -27.673 -8.89 241.032 272.587 1 0 1@91793dc3" style="fill: rgb(216, 216, 216);"></path>
    </clipPath>
    <clipPath id="clip-1">
      <path d="M 27.672 -263.7 L 27.672 8.887 L -213.36 8.887 L 27.672 -263.7 Z" bx:shape="triangle -213.36 -263.7 241.032 272.587 1 0 1@ee8d6665" style="fill: rgb(216, 216, 216);" transform="matrix(-1, 0, 0, -1, 0, 0)"></path>
    </clipPath>
    <linearGradient id="gradient-0" bx:pinned="true">
      <title>Blue gradient</title>
      <stop style="stop-color: rgb(0, 207, 235);" offset="0"></stop>
      <stop style="stop-color: rgb(13, 54, 255);" offset="1"></stop>
    </linearGradient>
    <linearGradient id="gradient-0-0" href="#gradient-0" gradientUnits="userSpaceOnUse" x1="94.147" y1="-0.005" x2="94.147" y2="254.812"></linearGradient>
    <bx:export>
      <bx:file format="svg"></bx:file>
    </bx:export>
  </defs>
  <rect width="500" height="500" style="fill: rgb(31, 35, 46)"></rect>
  <g id="fire" transform="matrix(2.074416, 0, 0, 1.834277, 57.406109, 16.306301)" style="clip-path: url(#clip-1);">
    <path d="M187.899,164.809 C185.803,214.868 144.574,254.812 94.000,254.812 C42.085,254.812 -0.000,211.312 -0.000,160.812 C-0.000,154.062 -0.121,140.572 10.000,117.812 C16.057,104.191 19.856,95.634 22.000,87.812 C23.178,83.513 25.469,76.683 32.000,87.812 C35.851,94.374 36.000,103.812 36.000,103.812 C36.000,103.812 50.328,92.817 60.000,71.812 C74.179,41.019 62.866,22.612 59.000,9.812 C57.662,5.384 56.822,-2.574 66.000,0.812 C75.352,4.263 100.076,21.570 113.000,39.812 C131.445,65.847 138.000,90.812 138.000,90.812 C138.000,90.812 143.906,83.482 146.000,75.812 C148.365,67.151 148.400,58.573 155.999,67.813 C163.226,76.600 173.959,93.113 180.000,108.812 C190.969,137.321 187.899,164.809 187.899,164.809 Z" id="path-1" class="cls-3" fill-rule="evenodd" style="fill: url(#linear-gradient-1);"></path>
    <path d="M94.000,254.812 C58.101,254.812 29.000,225.711 29.000,189.812 C29.000,168.151 37.729,155.000 55.896,137.166 C67.528,125.747 78.415,111.722 83.042,102.172 C83.953,100.292 86.026,90.495 94.019,101.966 C98.212,107.982 104.785,118.681 109.000,127.812 C116.266,143.555 118.000,158.812 118.000,158.812 C118.000,158.812 125.121,154.616 130.000,143.812 C131.573,140.330 134.753,127.148 143.643,140.328 C150.166,150.000 159.127,167.390 159.000,189.812 C159.000,225.711 129.898,254.812 94.000,254.812 Z" id="path-2" class="cls-4" fill-rule="evenodd" style="fill: rgb(252, 149, 2);"></path>
    <path d="M95.000,183.812 C104.250,183.812 104.250,200.941 116.000,223.812 C123.824,239.041 112.121,254.812 95.000,254.812 C77.879,254.812 69.000,240.933 69.000,223.812 C69.000,206.692 85.750,183.812 95.000,183.812 Z" id="path-3" class="cls-5" fill-rule="evenodd" style="fill: rgb(252, 226, 2);"></path>
  </g>
  <g id="group-1" transform="matrix(2.074416, 0, 0, 1.834277, 54.699635, 12.7098)" style="clip-path: url(#clip-0);">
    <path d="M187.899,164.809 C185.803,214.868 144.574,254.812 94.000,254.812 C42.085,254.812 -0.000,211.312 -0.000,160.812 C-0.000,154.062 -0.121,140.572 10.000,117.812 C16.057,104.191 19.856,95.634 22.000,87.812 C23.178,83.513 25.469,76.683 32.000,87.812 C35.851,94.374 36.000,103.812 36.000,103.812 C36.000,103.812 50.328,92.817 60.000,71.812 C74.179,41.019 62.866,22.612 59.000,9.812 C57.662,5.384 56.822,-2.574 66.000,0.812 C75.352,4.263 100.076,21.570 113.000,39.812 C131.445,65.847 138.000,90.812 138.000,90.812 C138.000,90.812 143.906,83.482 146.000,75.812 C148.365,67.151 148.400,58.573 155.999,67.813 C163.226,76.600 173.959,93.113 180.000,108.812 C190.969,137.321 187.899,164.809 187.899,164.809 Z" id="path-4" class="cls-3" fill-rule="evenodd" style="fill: url(#gradient-0-0);"></path>
    <path d="M94.000,254.812 C58.101,254.812 29.000,225.711 29.000,189.812 C29.000,168.151 37.729,155.000 55.896,137.166 C67.528,125.747 78.415,111.722 83.042,102.172 C83.953,100.292 86.026,90.495 94.019,101.966 C98.212,107.982 104.785,118.681 109.000,127.812 C116.266,143.555 118.000,158.812 118.000,158.812 C118.000,158.812 125.121,154.616 130.000,143.812 C131.573,140.330 134.753,127.148 143.643,140.328 C150.166,150.000 159.127,167.390 159.000,189.812 C159.000,225.711 129.898,254.812 94.000,254.812 Z" id="path-5" class="cls-4" fill-rule="evenodd" style="fill: rgb(2, 175, 252);"></path>
    <path d="M95.000,183.812 C104.250,183.812 104.250,200.941 116.000,223.812 C123.824,239.041 112.121,254.812 95.000,254.812 C77.879,254.812 69.000,240.933 69.000,223.812 C69.000,206.692 85.750,183.812 95.000,183.812 Z" id="path-6" class="cls-5" fill-rule="evenodd" style="fill: rgb(2, 209, 252);"></path>
  </g>
</svg>